<?xml version="1.0" encoding="UTF-8" standalone="no"?>
<svg width="50px" height="50px" viewBox="0 0 50 50" version="1.1" xmlns="http://www.w3.org/2000/svg" xmlns:xlink="http://www.w3.org/1999/xlink" xmlns:sketch="http://www.bohemiancoding.com/sketch/ns">
    <!-- Generator: Sketch 3.3.2 (12043) - http://www.bohemiancoding.com/sketch -->
    <title>icon-press-kit-active</title>
    <desc>Created with Sketch.</desc>
    <defs></defs>
    <g id="Welcome" stroke="none" stroke-width="1" fill="none" fill-rule="evenodd" sketch:type="MSPage">
        <g id="icon-press-kit-active" sketch:type="MSArtboardGroup" stroke="#2A2E3A">
            <g id="treasure-icon" sketch:type="MSLayerGroup" transform="translate(4.000000, 11.000000)">
                <path d="M19.9892,9.3156 L19.9892,7.53853333 C19.9892,6.944 20.4726667,6.46146667 21.0681333,6.46146667 C21.6645333,6.46146667 22.148,6.944 22.148,7.53853333 L22.148,9.3156 C22.7901333,9.68986667 23.2278667,10.3758667 23.2278667,11.1701333 C23.2278667,12.3573333 22.2590667,13.3242667 21.0681333,13.3242667 C19.8781333,13.3242667 18.9102667,12.3573333 18.9102667,11.1701333 C18.9102667,10.3758667 19.3461333,9.68893333 19.9892,9.3156 L19.9892,9.3156 Z" id="Fill-1" sketch:type="MSShapeGroup"></path>
                <path d="M21.0690667,17.024 C17.6502667,17.024 14.8241333,14.4778667 14.3668,11.1822667 L0.1568,11.1822667 L0.1568,27.9253333 L41.9813333,27.9253333 L41.9813333,11.1822667 L27.7722667,11.1822667 C27.314,14.4778667 24.4878667,17.024 21.0690667,17.024" id="Fill-2" sketch:type="MSShapeGroup"></path>
                <path d="M33.5813333,0.0401333333 L8.5568,0.0401333333 C3.9172,0.0401333333 0.1568,3.80053333 0.1568,8.44013333 L0.1568,9.3156 L14.3668,9.3156 C14.8241333,6.02093333 17.6502667,3.4748 21.0690667,3.4748 C24.4878667,3.4748 27.314,6.02093333 27.7722667,9.3156 L41.9813333,9.3156 L41.9813333,8.44013333 C41.9813333,3.80053333 38.2209333,0.0401333333 33.5813333,0.0401333333" id="Fill-3" sketch:type="MSShapeGroup"></path>
            </g>
        </g>
    </g>
</svg>