<?xml version="1.0" encoding="UTF-8" standalone="no"?>
<svg width="50px" height="50px" viewBox="0 0 50 50" version="1.1" xmlns="http://www.w3.org/2000/svg" xmlns:xlink="http://www.w3.org/1999/xlink" xmlns:sketch="http://www.bohemiancoding.com/sketch/ns">
    <!-- Generator: Sketch 3.3.2 (12043) - http://www.bohemiancoding.com/sketch -->
    <title>icon-facebook</title>
    <desc>Created with Sketch.</desc>
    <defs></defs>
    <g id="Welcome" stroke="none" stroke-width="1" fill="none" fill-rule="evenodd" sketch:type="MSPage">
        <g id="icon-facebook" sketch:type="MSArtboardGroup" stroke="#C7984A">
            <g id="Facebook-icon" sketch:type="MSLayerGroup" transform="translate(10.000000, 10.000000)">
                <path d="M28.2273134,0 L1.6488806,0 C0.738134328,0 0,0.738022388 0,1.6488806 L0,28.2273134 C0,29.1379478 0.738134328,29.876194 1.6488806,29.876194 L15.9577612,29.876194 L15.9577612,18.3066045 L12.0643657,18.3066045 L12.0643657,13.7976493 L15.9577612,13.7976493 L15.9577612,10.4724627 C15.9577612,6.61354478 18.3146642,4.51231343 21.7570522,4.51231343 C23.4059328,4.51231343 24.823209,4.63511194 25.2361567,4.68996269 L25.2361567,8.72272388 L22.848694,8.72384328 C20.9764925,8.72384328 20.6140299,9.61343284 20.6140299,10.9188806 L20.6140299,13.7976493 L25.0789925,13.7976493 L24.4975746,18.3066045 L20.6140299,18.3066045 L20.6140299,29.876194 L28.2273134,29.876194 C29.1379478,29.876194 29.876194,29.1379478 29.876194,28.2273134 L29.876194,1.6488806 C29.876194,0.738022388 29.1379478,0 28.2273134,0" id="Imported-Layers" sketch:type="MSShapeGroup"></path>
            </g>
        </g>
    </g>
</svg>